<svg width="24" height="24" viewBox="0 0 24 24" fill="none" xmlns="http://www.w3.org/2000/svg">
<path d="M24 12C24.0009 12.3134 23.9059 12.6217 23.7243 12.8948C23.5427 13.168 23.2807 13.3967 22.9636 13.5588L3.31636 23.7283C2.98512 23.8999 2.60573 23.9936 2.21738 23.9997C1.82903 24.0058 1.4458 23.924 1.10727 23.7629C0.771968 23.6043 0.492649 23.3729 0.298042 23.0927C0.103434 22.8124 0.000560261 22.4934 0 22.1684V1.83164C0.000560261 1.5066 0.103434 1.18755 0.298042 0.907307C0.492649 0.62706 0.771968 0.395729 1.10727 0.237103C1.4458 0.0759744 1.82903 -0.00576841 2.21738 0.000316538C2.60573 0.00640149 2.98512 0.100094 3.31636 0.271717L22.9636 10.4412C23.2807 10.6033 23.5427 10.832 23.7243 11.1052C23.9059 11.3783 24.0009 11.6866 24 12Z" fill="#8B0D89"/>
</svg>
