<svg width="20" height="20" viewBox="0 0 20 20" fill="none" xmlns="http://www.w3.org/2000/svg">
<path d="M1.875 10C1.87666 8.50867 2.46982 7.07889 3.52435 6.02436C4.57889 4.96982 6.00867 4.37666 7.5 4.375H15V3.125C14.9999 3.00132 15.0365 2.88039 15.1052 2.77752C15.1738 2.67464 15.2715 2.59446 15.3858 2.54711C15.5 2.49977 15.6258 2.48739 15.7471 2.51155C15.8684 2.5357 15.9798 2.59531 16.0672 2.68282L17.9422 4.55782C18.0003 4.61586 18.0464 4.68479 18.0779 4.76067C18.1093 4.83654 18.1255 4.91787 18.1255 5C18.1255 5.08214 18.1093 5.16347 18.0779 5.23934C18.0464 5.31522 18.0003 5.38415 17.9422 5.44219L16.0672 7.31719C15.9798 7.4047 15.8684 7.4643 15.7471 7.48846C15.6258 7.51262 15.5 7.50024 15.3858 7.45289C15.2715 7.40555 15.1738 7.32536 15.1052 7.22249C15.0365 7.11962 14.9999 6.99869 15 6.875V5.625H7.5C6.34006 5.62624 5.22798 6.08758 4.40778 6.90778C3.58758 7.72799 3.12624 8.84006 3.125 10C3.125 10.1658 3.05916 10.3247 2.94194 10.4419C2.82473 10.5592 2.66576 10.625 2.5 10.625C2.33424 10.625 2.17527 10.5592 2.05806 10.4419C1.94085 10.3247 1.875 10.1658 1.875 10ZM17.5 9.375C17.3342 9.375 17.1753 9.44085 17.0581 9.55806C16.9409 9.67527 16.875 9.83424 16.875 10C16.8738 11.1599 16.4124 12.272 15.5922 13.0922C14.772 13.9124 13.6599 14.3738 12.5 14.375H5V13.125C5.0001 13.0013 4.9635 12.8804 4.89483 12.7775C4.82616 12.6746 4.72851 12.5945 4.61425 12.5471C4.49998 12.4998 4.37424 12.4874 4.25294 12.5115C4.13163 12.5357 4.02023 12.5953 3.93282 12.6828L2.05782 14.5578C1.99971 14.6159 1.95361 14.6848 1.92215 14.7607C1.8907 14.8365 1.87451 14.9179 1.87451 15C1.87451 15.0821 1.8907 15.1635 1.92215 15.2393C1.95361 15.3152 1.99971 15.3841 2.05782 15.4422L3.93282 17.3172C4.02023 17.4047 4.13163 17.4643 4.25294 17.4885C4.37424 17.5126 4.49998 17.5002 4.61425 17.4529C4.72851 17.4055 4.82616 17.3254 4.89483 17.2225C4.9635 17.1196 5.0001 16.9987 5 16.875V15.625H12.5C13.9913 15.6233 15.4211 15.0302 16.4757 13.9757C17.5302 12.9211 18.1233 11.4913 18.125 10C18.125 9.83424 18.0592 9.67527 17.9419 9.55806C17.8247 9.44085 17.6658 9.375 17.5 9.375Z" fill="#8B0D89"/>
</svg>
