<svg width="20" height="20" viewBox="0 0 20 20" fill="none" xmlns="http://www.w3.org/2000/svg">
<path d="M19.7828 15.72C19.8516 15.8045 19.9063 15.9047 19.9435 16.0151C19.9808 16.1254 20 16.2437 20 16.3632C20 16.4826 19.9808 16.6009 19.9435 16.7113C19.9063 16.8216 19.8516 16.9219 19.7828 17.0063L17.5606 19.7334C17.457 19.8607 17.325 19.9474 17.1812 19.9825C17.0374 20.0176 16.8884 19.9996 16.753 19.9308C16.6176 19.8619 16.5019 19.7453 16.4205 19.5957C16.3391 19.446 16.2957 19.2701 16.2958 19.0903V17.2722C15.2497 17.2542 14.2217 16.9349 13.2946 16.34C12.3674 15.7452 11.5671 14.8914 10.958 13.8475L7.09516 7.21156C6.615 6.38784 5.98182 5.71637 5.24807 5.2528C4.51432 4.78922 3.70112 4.54688 2.87584 4.54585H0.740719C0.544268 4.54585 0.355863 4.45007 0.216952 4.2796C0.0780398 4.10912 0 3.87791 0 3.63682C0 3.39573 0.0780398 3.16452 0.216952 2.99404C0.355863 2.82357 0.544268 2.72779 0.740719 2.72779H2.87584C3.93682 2.72888 4.98232 3.0402 5.92571 3.63597C6.86911 4.23175 7.68325 5.09482 8.30068 6.15368L12.1635 12.7896C12.635 13.5987 13.2544 14.2612 13.9719 14.7239C14.6895 15.1866 15.4854 15.4367 16.2958 15.4542V13.6361C16.2957 13.4562 16.3391 13.2803 16.4205 13.1307C16.5019 12.9811 16.6176 12.8645 16.753 12.7956C16.8884 12.7267 17.0374 12.7087 17.1812 12.7439C17.325 12.779 17.457 12.8657 17.5606 12.993L19.7828 15.72ZM11.0182 7.61381C11.0974 7.6832 11.1869 7.73277 11.2816 7.7597C11.3764 7.78664 11.4746 7.7904 11.5705 7.77077C11.6665 7.75114 11.7583 7.70852 11.8409 7.64532C11.9234 7.58213 11.995 7.4996 12.0515 7.40246L12.1626 7.2127C12.634 6.40298 13.2534 5.74 13.9711 5.2769C14.6889 4.81379 15.485 4.56342 16.2958 4.54585V6.3639C16.2957 6.54379 16.3391 6.71968 16.4205 6.8693C16.5019 7.01892 16.6176 7.13554 16.753 7.2044C16.8884 7.27326 17.0374 7.29127 17.1812 7.25613C17.325 7.221 17.457 7.13431 17.5606 7.00703L19.7828 4.27996C19.8516 4.19553 19.9063 4.09528 19.9435 3.98492C19.9808 3.87457 20 3.75628 20 3.63682C20 3.51736 19.9808 3.39907 19.9435 3.28872C19.9063 3.17836 19.8516 3.07811 19.7828 2.99368L17.5606 0.266606C17.457 0.139332 17.325 0.0526405 17.1812 0.0175063C17.0374 -0.0176279 16.8884 0.000374968 16.753 0.0692359C16.6176 0.138097 16.5019 0.254719 16.4205 0.40434C16.3391 0.55396 16.2957 0.729849 16.2958 0.909742V2.72779C15.2497 2.74582 14.2217 3.06513 13.2946 3.65999C12.3674 4.25484 11.5671 5.10862 10.958 6.15255L10.8469 6.34231C10.7899 6.43949 10.7491 6.54955 10.7268 6.66615C10.7046 6.78275 10.7013 6.90359 10.7172 7.02175C10.7331 7.1399 10.7679 7.25303 10.8196 7.35463C10.8712 7.45624 10.9387 7.54432 11.0182 7.61381ZM8.2405 12.3862C8.16135 12.3168 8.07183 12.2672 7.97706 12.2403C7.88229 12.2134 7.78413 12.2096 7.68818 12.2292C7.59223 12.2489 7.50037 12.2915 7.41784 12.3547C7.33531 12.4179 7.26374 12.5004 7.2072 12.5975L7.09609 12.7873C6.61594 13.6114 5.98265 14.2832 5.24872 14.747C4.51479 15.2107 3.70136 15.4532 2.87584 15.4542H0.740719C0.544268 15.4542 0.355863 15.5499 0.216952 15.7204C0.0780398 15.8909 0 16.1221 0 16.3632C0 16.6043 0.0780398 16.8355 0.216952 17.006C0.355863 17.1764 0.544268 17.2722 0.740719 17.2722H2.87584C3.93682 17.2711 4.98232 16.9598 5.92571 16.364C6.86911 15.7683 7.68325 14.9052 8.30068 13.8463L8.41179 13.6566C8.46867 13.5594 8.50936 13.4494 8.53154 13.333C8.55372 13.2165 8.55694 13.0958 8.54103 12.9777C8.52511 12.8597 8.49038 12.7467 8.43881 12.6452C8.38723 12.5437 8.31985 12.4557 8.2405 12.3862Z" fill="#8B0D89"/>
</svg>
