<svg width="17" height="20" viewBox="0 0 17 20" fill="none" xmlns="http://www.w3.org/2000/svg">
<path d="M17 0.833333V19.1667C17 19.3877 16.9104 19.5996 16.751 19.7559C16.5916 19.9122 16.3754 20 16.15 20C15.9246 20 15.7084 19.9122 15.549 19.7559C15.3896 19.5996 15.3 19.3877 15.3 19.1667V11.9552L2.59569 19.7448C2.33984 19.9023 2.04571 19.9898 1.74375 19.9984C1.4418 20.007 1.14299 19.9363 0.878268 19.7936C0.613549 19.6509 0.392539 19.4415 0.238121 19.1869C0.0837042 18.9324 0.00149321 18.642 0 18.3458V1.65417C0.00149321 1.35801 0.0837042 1.06763 0.238121 0.813085C0.392539 0.558542 0.613549 0.349092 0.878268 0.20642C1.14299 0.0637475 1.4418 -0.00695998 1.74375 0.00161807C2.04571 0.0101961 2.33984 0.0977479 2.59569 0.255208L15.3 8.04479V0.833333C15.3 0.61232 15.3896 0.400358 15.549 0.244078C15.7084 0.0877975 15.9246 0 16.15 0C16.3754 0 16.5916 0.0877975 16.751 0.244078C16.9104 0.400358 17 0.61232 17 0.833333Z" fill="#8B0D89"/>
</svg>
