<svg width="20" height="20" viewBox="0 0 20 20" fill="none" xmlns="http://www.w3.org/2000/svg">
<path d="M20 1.65417V18.3458C19.9963 18.6413 19.8983 18.9307 19.7162 19.1842C19.5341 19.4378 19.2743 19.6464 18.9636 19.7888C18.6528 19.9312 18.3023 20.0021 17.9478 19.9944C17.5933 19.9866 17.2476 19.9005 16.9463 19.7448L2 11.9552V19.1667C2 19.3877 1.89464 19.5996 1.70711 19.7559C1.51957 19.9122 1.26522 20 1 20C0.734784 20 0.48043 19.9122 0.292893 19.7559C0.105357 19.5996 0 19.3877 0 19.1667V0.833333C0 0.61232 0.105357 0.400358 0.292893 0.244078C0.48043 0.0877975 0.734784 0 1 0C1.26522 0 1.51957 0.0877975 1.70711 0.244078C1.89464 0.400358 2 0.61232 2 0.833333V8.04479L16.9463 0.255208C17.2473 0.0977479 17.5933 0.0101961 17.9485 0.00161807C18.3038 -0.00695998 18.6553 0.0637475 18.9667 0.20642C19.2782 0.349092 19.5382 0.558542 19.7199 0.813085C19.9015 1.06763 19.9982 1.35801 20 1.65417Z" fill="#8B0D89"/>
</svg>
